# xmcd
#
# Track frame offsets: 
#        150
#        14302
#        24930
#        39257
#        52435
#        62590
#        76432
#        88095
#        98442
#        108482
#        117520
#        127422
#        139360
#        149907
#        158550
#        172870
#        184940
#        193795
#        204677
#        217655
#        227360
#        240540
#        252605
#        263260
#        273200
#        283150
#        293210
#        303677
#        317652
#
# Disc length: 4242 seconds
#
# Revision: 1
# Processed by: cddbd v1.5.2PL0 Copyright (c) Steve Scherf et al.
# Submitted via: ExactAudioCopyFreeDBPlugin 1.0
#
DISCID=ad10901d
DTITLE=Various Artist - Aladdin and Imperial R and B Vocal Group Magic Vol. 2
DYEAR=1900
DGENRE=R&B
TTITLE0=Aladdins - Help Me
TTITLE1=Spotlighters - Whisper
TTITLE2=Jets - I'll Hide my Tears
TTITLE3=Five Keys -Goin' Downtown (8-9-10)
TTITLE4=Dodgers - Cat Hop
TTITLE5=Dodgers - Drip Drop
TTITLE6=Chestnuts - This is my Love
TTITLE7=Fi-Dells - What is Love
TTITLE8=Four Palms - Jeanie, Joanie, Shirley, Toni
TTITLE9=Squires - Dangling With my Heart
TTITLE10=Jivers - Little Mama
TTITLE11=Dukes - Cotton Pickin' Hands
TTITLE12=Barons - Boom Boom
TTITLE13=Tantones - Tell Me
TTITLE14=Aladdins - Eternally
TTITLE15=Tantones - so Afraid
TTITLE16=Barons - Shake The Dice
TTITLE17=Ebonaires - Lawd, Lawd, Lawd
TTITLE18=Meadowlarks - Brother Bill
TTITLE19=Hawks - Give it Up
TTITLE20=Jesse Belvin and Three Dots and a Dash - All That Wine is Gone
TTITLE21=Lovers - Tell Me
TTITLE22=Barbara Massey and Group -You Call me Angel (You Devil You)
TTITLE23=Velvetones - Melody of Love
TTITLE24=Jivers - Dear Little One
TTITLE25=Ebonaires - You're Nobody Till Somebody Loves You
TTITLE26=Kidds - You Broke my Heart
TTITLE27=Five Keys - Darling
TTITLE28=Hidden Track
EXTD=
EXTT0=
EXTT1=
EXTT2=
EXTT3=
EXTT4=
EXTT5=
EXTT6=
EXTT7=
EXTT8=
EXTT9=
EXTT10=
EXTT11=
EXTT12=
EXTT13=
EXTT14=
EXTT15=
EXTT16=
EXTT17=
EXTT18=
EXTT19=
EXTT20=
EXTT21=
EXTT22=
EXTT23=
EXTT24=
EXTT25=
EXTT26=
EXTT27=
EXTT28=
PLAYORDER=
